<mxfile host="app.diagrams.net" modified="2022-03-16T09:24:51.368Z" agent="5.0 (Macintosh; Intel Mac OS X 10_15_7) AppleWebKit/537.36 (KHTML, like Gecko) Chrome/99.0.4844.51 Safari/537.36" etag="R4JCeuzdMbLWGsCPnkIh" version="17.1.2" type="github">
  <diagram id="N5IIPlqEorlz9_dJOObR" name="Page-1">
    <mxGraphModel dx="1126" dy="978" grid="1" gridSize="10" guides="1" tooltips="1" connect="1" arrows="1" fold="1" page="1" pageScale="1" pageWidth="827" pageHeight="1169" math="0" shadow="0">
      <root>
        <mxCell id="0" />
        <mxCell id="1" parent="0" />
        <mxCell id="8PDwgz84oM8eaDjoXUcE-2" value="" style="rounded=0;whiteSpace=wrap;html=1;labelBackgroundColor=none;strokeColor=#66B2FF;strokeWidth=2;fillColor=none;gradientColor=#FFFFFF;" parent="1" vertex="1">
          <mxGeometry x="290" y="220" width="580" height="410" as="geometry" />
        </mxCell>
        <mxCell id="8PDwgz84oM8eaDjoXUcE-3" value="&lt;font style=&quot;font-size: 20px&quot;&gt;S3/OSS/HDFS&lt;/font&gt;" style="rounded=0;whiteSpace=wrap;html=1;labelBackgroundColor=none;strokeColor=#66B2FF;strokeWidth=2;fillColor=none;gradientColor=#FFFFFF;" parent="1" vertex="1">
          <mxGeometry x="290" y="630" width="580" height="60" as="geometry" />
        </mxCell>
        <mxCell id="8PDwgz84oM8eaDjoXUcE-6" value="" style="points=[[0,0,0],[0.25,0,0],[0.5,0,0],[0.75,0,0],[1,0,0],[0,1,0],[0.25,1,0],[0.5,1,0],[0.75,1,0],[1,1,0],[0,0.25,0],[0,0.5,0],[0,0.75,0],[1,0.25,0],[1,0.5,0],[1,0.75,0]];outlineConnect=0;fontColor=#232F3E;gradientDirection=north;dashed=0;verticalLabelPosition=bottom;verticalAlign=top;align=center;html=1;fontSize=12;fontStyle=0;aspect=fixed;shape=mxgraph.aws4.resourceIcon;resIcon=mxgraph.aws4.lake_formation;labelBackgroundColor=none;gradientColor=#FFFFFF;strokeColor=#CCCCCC;fillColor=none;" parent="1" vertex="1">
          <mxGeometry x="321" y="631" width="59" height="59" as="geometry" />
        </mxCell>
        <mxCell id="8PDwgz84oM8eaDjoXUcE-7" style="edgeStyle=orthogonalEdgeStyle;rounded=0;orthogonalLoop=1;jettySize=auto;html=1;entryX=-0.033;entryY=0.52;entryDx=0;entryDy=0;fontSize=14;endArrow=classic;endFill=1;dashed=1;strokeWidth=2;entryPerimeter=0;" parent="1" source="8PDwgz84oM8eaDjoXUcE-8" target="8PDwgz84oM8eaDjoXUcE-19" edge="1">
          <mxGeometry relative="1" as="geometry">
            <mxPoint x="450" y="345" as="targetPoint" />
          </mxGeometry>
        </mxCell>
        <mxCell id="8PDwgz84oM8eaDjoXUcE-8" value="行业研报原数据表" style="html=1;verticalLabelPosition=bottom;align=center;labelBackgroundColor=#ffffff;verticalAlign=top;strokeWidth=2;shadow=0;dashed=0;shape=mxgraph.ios7.icons.data;strokeColor=#A18940;" parent="1" vertex="1">
          <mxGeometry x="321" y="305" width="60" height="80" as="geometry" />
        </mxCell>
        <mxCell id="8PDwgz84oM8eaDjoXUcE-9" style="edgeStyle=orthogonalEdgeStyle;rounded=0;orthogonalLoop=1;jettySize=auto;html=1;dashed=1;fontSize=14;endArrow=classic;endFill=1;strokeWidth=2;entryX=-0.017;entryY=0.52;entryDx=0;entryDy=0;entryPerimeter=0;" parent="1" source="8PDwgz84oM8eaDjoXUcE-10" target="8PDwgz84oM8eaDjoXUcE-19" edge="1">
          <mxGeometry relative="1" as="geometry">
            <mxPoint x="450" y="520" as="targetPoint" />
          </mxGeometry>
        </mxCell>
        <mxCell id="8PDwgz84oM8eaDjoXUcE-10" value="公司研报原数据表" style="html=1;verticalLabelPosition=bottom;align=center;labelBackgroundColor=#ffffff;verticalAlign=top;strokeWidth=2;shadow=0;dashed=0;shape=mxgraph.ios7.icons.data;strokeColor=#A18940;" parent="1" vertex="1">
          <mxGeometry x="321" y="480" width="60" height="80" as="geometry" />
        </mxCell>
        <mxCell id="8PDwgz84oM8eaDjoXUcE-11" value="&lt;font style=&quot;font-size: 20px&quot;&gt;DeltaLake&lt;/font&gt;" style="text;html=1;strokeColor=none;fillColor=none;align=center;verticalAlign=middle;whiteSpace=wrap;rounded=0;labelBackgroundColor=none;" parent="1" vertex="1">
          <mxGeometry x="525" y="220" width="150" height="20" as="geometry" />
        </mxCell>
        <mxCell id="8PDwgz84oM8eaDjoXUcE-12" value="Bronze" style="text;html=1;strokeColor=none;fillColor=none;align=center;verticalAlign=middle;whiteSpace=wrap;rounded=0;labelBackgroundColor=none;" parent="1" vertex="1">
          <mxGeometry x="340" y="250" width="40" height="20" as="geometry" />
        </mxCell>
        <mxCell id="8PDwgz84oM8eaDjoXUcE-13" value="Silver" style="text;html=1;strokeColor=none;fillColor=none;align=center;verticalAlign=middle;whiteSpace=wrap;rounded=0;labelBackgroundColor=none;" parent="1" vertex="1">
          <mxGeometry x="490" y="250" width="40" height="20" as="geometry" />
        </mxCell>
        <mxCell id="8PDwgz84oM8eaDjoXUcE-14" value="Gold" style="text;html=1;strokeColor=none;fillColor=none;align=center;verticalAlign=middle;whiteSpace=wrap;rounded=0;labelBackgroundColor=none;" parent="1" vertex="1">
          <mxGeometry x="760" y="250" width="40" height="20" as="geometry" />
        </mxCell>
        <mxCell id="8PDwgz84oM8eaDjoXUcE-15" value="" style="endArrow=none;dashed=1;html=1;strokeWidth=2;" parent="1" edge="1">
          <mxGeometry width="50" height="50" relative="1" as="geometry">
            <mxPoint x="660" y="609.5" as="sourcePoint" />
            <mxPoint x="700" y="609.9099999999999" as="targetPoint" />
            <Array as="points">
              <mxPoint x="690" y="610" />
            </Array>
          </mxGeometry>
        </mxCell>
        <mxCell id="8PDwgz84oM8eaDjoXUcE-16" value="&lt;b&gt;Spark Structured Streaming&lt;/b&gt;" style="text;html=1;align=center;verticalAlign=middle;resizable=0;points=[];autosize=1;" parent="1" vertex="1">
          <mxGeometry x="700" y="600" width="170" height="20" as="geometry" />
        </mxCell>
        <mxCell id="8PDwgz84oM8eaDjoXUcE-17" style="edgeStyle=orthogonalEdgeStyle;rounded=0;orthogonalLoop=1;jettySize=auto;html=1;endArrow=classic;endFill=1;dashed=1;strokeWidth=2;" parent="1" source="8PDwgz84oM8eaDjoXUcE-19" target="8PDwgz84oM8eaDjoXUcE-24" edge="1">
          <mxGeometry relative="1" as="geometry" />
        </mxCell>
        <mxCell id="8PDwgz84oM8eaDjoXUcE-18" style="edgeStyle=orthogonalEdgeStyle;rounded=0;orthogonalLoop=1;jettySize=auto;html=1;entryX=0;entryY=0.5;entryDx=0;entryDy=0;entryPerimeter=0;endArrow=classic;endFill=1;strokeWidth=2;dashed=1;" parent="1" source="8PDwgz84oM8eaDjoXUcE-19" target="8PDwgz84oM8eaDjoXUcE-23" edge="1">
          <mxGeometry relative="1" as="geometry" />
        </mxCell>
        <mxCell id="nrMTHtK2D5ZiTl-ygLw8-4" style="edgeStyle=orthogonalEdgeStyle;rounded=0;orthogonalLoop=1;jettySize=auto;html=1;entryX=-0.017;entryY=0.64;entryDx=0;entryDy=0;entryPerimeter=0;dashed=1;strokeWidth=2;" edge="1" parent="1" source="8PDwgz84oM8eaDjoXUcE-19" target="nrMTHtK2D5ZiTl-ygLw8-2">
          <mxGeometry relative="1" as="geometry">
            <Array as="points">
              <mxPoint x="670" y="315" />
              <mxPoint x="670" y="412" />
            </Array>
          </mxGeometry>
        </mxCell>
        <mxCell id="8PDwgz84oM8eaDjoXUcE-19" value="研报信息表" style="html=1;verticalLabelPosition=bottom;align=center;labelBackgroundColor=#ffffff;verticalAlign=top;strokeWidth=5;shadow=0;shape=mxgraph.ios7.icons.data;strokeColor=#CCCCCC;" parent="1" vertex="1">
          <mxGeometry x="480" y="290" width="60" height="50" as="geometry" />
        </mxCell>
        <mxCell id="8PDwgz84oM8eaDjoXUcE-23" value="对象记录标签索引表" style="html=1;verticalLabelPosition=bottom;align=center;labelBackgroundColor=#ffffff;verticalAlign=top;strokeWidth=2;shadow=0;shape=mxgraph.ios7.icons.data;strokeColor=#FFD966;" parent="1" vertex="1">
          <mxGeometry x="750" y="290" width="60" height="50" as="geometry" />
        </mxCell>
        <mxCell id="p9FwzpZIpf5mGVitxmYa-4" style="edgeStyle=orthogonalEdgeStyle;rounded=0;orthogonalLoop=1;jettySize=auto;html=1;entryX=-0.033;entryY=0.5;entryDx=0;entryDy=0;entryPerimeter=0;dashed=1;strokeWidth=2;" parent="1" source="8PDwgz84oM8eaDjoXUcE-24" target="8PDwgz84oM8eaDjoXUcE-27" edge="1">
          <mxGeometry relative="1" as="geometry" />
        </mxCell>
        <mxCell id="8PDwgz84oM8eaDjoXUcE-24" value="备选概念词表" style="html=1;verticalLabelPosition=bottom;align=center;labelBackgroundColor=#ffffff;verticalAlign=top;strokeWidth=5;shadow=0;shape=mxgraph.ios7.icons.data;strokeColor=#CCCCCC;" parent="1" vertex="1">
          <mxGeometry x="480" y="400" width="60" height="50" as="geometry" />
        </mxCell>
        <mxCell id="8PDwgz84oM8eaDjoXUcE-25" style="edgeStyle=orthogonalEdgeStyle;rounded=0;orthogonalLoop=1;jettySize=auto;html=1;exitX=0.5;exitY=1;exitDx=0;exitDy=0;dashed=1;fontSize=14;endArrow=classic;endFill=1;strokeWidth=2;" parent="1" source="8PDwgz84oM8eaDjoXUcE-2" target="8PDwgz84oM8eaDjoXUcE-2" edge="1">
          <mxGeometry relative="1" as="geometry" />
        </mxCell>
        <mxCell id="8PDwgz84oM8eaDjoXUcE-27" value="概念词与停用词表" style="html=1;verticalLabelPosition=bottom;align=center;labelBackgroundColor=#ffffff;verticalAlign=top;strokeWidth=5;shadow=0;shape=mxgraph.ios7.icons.data;strokeColor=#CCCCCC;" parent="1" vertex="1">
          <mxGeometry x="580" y="400" width="60" height="50" as="geometry" />
        </mxCell>
        <mxCell id="8PDwgz84oM8eaDjoXUcE-28" value="词性标注" style="shape=image;html=1;verticalAlign=top;verticalLabelPosition=bottom;labelBackgroundColor=#ffffff;imageAspect=0;aspect=fixed;image=https://cdn2.iconfinder.com/data/icons/analytic-investment-and-balanced-scorecard/512/540_Build_design_develop_sketch_tools_game_design_development-128.png;strokeColor=#66B2FF;strokeWidth=2;fillColor=none;gradientColor=#FFFFFF;" parent="1" vertex="1">
          <mxGeometry x="460" y="370" width="20" height="20" as="geometry" />
        </mxCell>
        <mxCell id="8PDwgz84oM8eaDjoXUcE-30" value="NER模型" style="shape=image;html=1;verticalAlign=top;verticalLabelPosition=bottom;labelBackgroundColor=#ffffff;imageAspect=0;aspect=fixed;image=https://cdn2.iconfinder.com/data/icons/analytic-investment-and-balanced-scorecard/512/540_Build_design_develop_sketch_tools_game_design_development-128.png;strokeColor=#66B2FF;strokeWidth=2;fillColor=none;gradientColor=#FFFFFF;" parent="1" vertex="1">
          <mxGeometry x="540" y="370" width="20" height="20" as="geometry" />
        </mxCell>
        <mxCell id="8PDwgz84oM8eaDjoXUcE-31" value="热点挖掘模块" style="shape=image;html=1;verticalAlign=top;verticalLabelPosition=bottom;labelBackgroundColor=#ffffff;imageAspect=0;aspect=fixed;image=https://cdn2.iconfinder.com/data/icons/analytic-investment-and-balanced-scorecard/512/540_Build_design_develop_sketch_tools_game_design_development-128.png;strokeColor=#66B2FF;strokeWidth=2;fillColor=none;gradientColor=#FFFFFF;" parent="1" vertex="1">
          <mxGeometry x="610" y="320" width="20" height="20" as="geometry" />
        </mxCell>
        <mxCell id="8PDwgz84oM8eaDjoXUcE-32" value="&lt;b&gt;&lt;u&gt;2&lt;/u&gt;&lt;/b&gt;" style="text;html=1;strokeColor=none;fillColor=none;align=center;verticalAlign=middle;whiteSpace=wrap;rounded=0;" parent="1" vertex="1">
          <mxGeometry x="410" y="430" width="20" height="20" as="geometry" />
        </mxCell>
        <mxCell id="8PDwgz84oM8eaDjoXUcE-33" value="&lt;b&gt;&lt;u&gt;1&lt;/u&gt;&lt;/b&gt;" style="text;html=1;align=center;verticalAlign=middle;resizable=0;points=[];autosize=1;strokeColor=none;fillColor=none;" parent="1" vertex="1">
          <mxGeometry x="390" y="325" width="20" height="20" as="geometry" />
        </mxCell>
        <mxCell id="8PDwgz84oM8eaDjoXUcE-34" value="&lt;b&gt;&lt;u&gt;3&lt;/u&gt;&lt;/b&gt;" style="text;html=1;align=center;verticalAlign=middle;resizable=0;points=[];autosize=1;strokeColor=none;fillColor=none;" parent="1" vertex="1">
          <mxGeometry x="490" y="365" width="20" height="20" as="geometry" />
        </mxCell>
        <mxCell id="8PDwgz84oM8eaDjoXUcE-35" value="&lt;b&gt;&lt;u&gt;4&lt;/u&gt;&lt;/b&gt;" style="text;html=1;align=center;verticalAlign=middle;resizable=0;points=[];autosize=1;strokeColor=none;fillColor=none;" parent="1" vertex="1">
          <mxGeometry x="710" y="290" width="20" height="20" as="geometry" />
        </mxCell>
        <mxCell id="nrMTHtK2D5ZiTl-ygLw8-1" value="热度值查询表" style="html=1;verticalLabelPosition=bottom;align=center;labelBackgroundColor=#ffffff;verticalAlign=top;strokeWidth=5;shadow=0;shape=mxgraph.ios7.icons.data;strokeColor=#CCCCCC;" vertex="1" parent="1">
          <mxGeometry x="480" y="495" width="60" height="50" as="geometry" />
        </mxCell>
        <mxCell id="nrMTHtK2D5ZiTl-ygLw8-2" value="标签对象记录索引表" style="html=1;verticalLabelPosition=bottom;align=center;labelBackgroundColor=#ffffff;verticalAlign=top;strokeWidth=2;shadow=0;shape=mxgraph.ios7.icons.data;strokeColor=#FFD966;" vertex="1" parent="1">
          <mxGeometry x="750" y="380" width="60" height="50" as="geometry" />
        </mxCell>
        <mxCell id="nrMTHtK2D5ZiTl-ygLw8-9" style="edgeStyle=orthogonalEdgeStyle;rounded=0;orthogonalLoop=1;jettySize=auto;html=1;dashed=1;strokeWidth=1;" edge="1" parent="1" source="nrMTHtK2D5ZiTl-ygLw8-3" target="nrMTHtK2D5ZiTl-ygLw8-7">
          <mxGeometry relative="1" as="geometry" />
        </mxCell>
        <mxCell id="nrMTHtK2D5ZiTl-ygLw8-3" value="标签信息表" style="html=1;verticalLabelPosition=bottom;align=center;labelBackgroundColor=#ffffff;verticalAlign=top;strokeWidth=2;shadow=0;shape=mxgraph.ios7.icons.data;strokeColor=#FFD966;" vertex="1" parent="1">
          <mxGeometry x="750" y="495" width="60" height="50" as="geometry" />
        </mxCell>
        <mxCell id="nrMTHtK2D5ZiTl-ygLw8-5" value="&lt;b&gt;&lt;u&gt;5&lt;/u&gt;&lt;/b&gt;" style="text;html=1;align=center;verticalAlign=middle;resizable=0;points=[];autosize=1;strokeColor=none;fillColor=none;" vertex="1" parent="1">
          <mxGeometry x="710" y="385" width="20" height="20" as="geometry" />
        </mxCell>
        <mxCell id="nrMTHtK2D5ZiTl-ygLw8-10" style="edgeStyle=orthogonalEdgeStyle;rounded=0;orthogonalLoop=1;jettySize=auto;html=1;exitX=0.5;exitY=0;exitDx=0;exitDy=0;entryX=0.4;entryY=0.95;entryDx=0;entryDy=0;entryPerimeter=0;dashed=1;strokeWidth=1;" edge="1" parent="1" source="nrMTHtK2D5ZiTl-ygLw8-7" target="8PDwgz84oM8eaDjoXUcE-35">
          <mxGeometry relative="1" as="geometry" />
        </mxCell>
        <mxCell id="nrMTHtK2D5ZiTl-ygLw8-12" style="edgeStyle=orthogonalEdgeStyle;rounded=0;orthogonalLoop=1;jettySize=auto;html=1;exitX=0.75;exitY=0;exitDx=0;exitDy=0;dashed=1;strokeWidth=1;" edge="1" parent="1" source="nrMTHtK2D5ZiTl-ygLw8-7" target="nrMTHtK2D5ZiTl-ygLw8-5">
          <mxGeometry relative="1" as="geometry" />
        </mxCell>
        <mxCell id="nrMTHtK2D5ZiTl-ygLw8-7" value="流处理生成模块" style="shape=image;html=1;verticalAlign=top;verticalLabelPosition=bottom;labelBackgroundColor=#ffffff;imageAspect=0;aspect=fixed;image=https://cdn2.iconfinder.com/data/icons/analytic-investment-and-balanced-scorecard/512/540_Build_design_develop_sketch_tools_game_design_development-128.png;strokeColor=#66B2FF;strokeWidth=2;fillColor=none;gradientColor=#FFFFFF;" vertex="1" parent="1">
          <mxGeometry x="690" y="460" width="20" height="20" as="geometry" />
        </mxCell>
      </root>
    </mxGraphModel>
  </diagram>
</mxfile>
